<?xml version="1.0"?>
<svg width="512" height="312" xmlns="http://www.w3.org/2000/svg" xmlns:svg="http://www.w3.org/2000/svg" version="1.1">
 <g class="layer">
  <title>Layer 1</title>
  <path d="m0,0c2.38,1.76 3.59,3.2 4.94,5.81c0.14,4.83 -2.68,8.85 -5.32,12.69c-11.63,18.1 -12.47,45.26 -8.59,65.72c2.14,9.25 6.39,17.52 10.97,25.78c-0.31,-1.65 -0.31,-1.65 -0.62,-3.33c-4.86,-26.46 -5.74,-53.17 9.62,-76.67c1.62,-1.71 3.28,-3.39 5,-5c0.5,-0.5 0.5,-0.5 1,-1c6.18,-0.58 6.18,-0.58 9.38,1.69c1.82,2.59 2.3,4.17 2.62,7.31c-0.82,2.11 -0.82,2.11 -2.12,4.19c-0.47,0.78 -0.93,1.56 -1.41,2.36c-0.49,0.81 -0.97,1.62 -1.47,2.45c-11.98,21.24 -10.13,44.58 -3.97,67.29c1.7,6.02 3.64,11.91 5.97,17.71c12.11,2.06 22.17,0.07 33.94,-3.1c17.99,-4.83 36.3,-7.64 54.75,-10.09c1.16,-0.15 2.32,-0.31 3.51,-0.47c3.93,-0.49 7.86,-0.93 11.8,-1.34c0.86,-0.09 1.71,-0.18 2.6,-0.27c16.73,-1.67 33.4,-2.05 50.2,-1.99c3.44,0.01 6.89,0 10.33,-0.01c15.51,-0.04 30.88,0.43 46.33,1.84c3.68,0.31 7.35,0.56 11.04,0.67c0.79,0.02 1.57,0.04 2.37,0.07c4.33,-0.63 6.57,-4.04 9.13,-7.31c1.37,-1.69 2.75,-3.38 4.13,-5.06c0.75,-0.93 1.5,-1.87 2.27,-2.83c2.98,-3.62 6.15,-7.05 9.35,-10.48c0.81,-0.88 0.81,-0.88 1.65,-1.77c13.31,-14.2 13.31,-14.2 22.43,-14.89c8.16,0.11 14.39,2.19 20.17,8.03c3.9,5.79 6.42,12.2 8.77,18.74c0.49,1.34 0.49,1.34 0.99,2.7c0.68,1.86 1.35,3.73 2.03,5.59c1.03,2.86 2.07,5.72 3.12,8.57c0.66,1.82 1.32,3.64 1.98,5.45c0.32,0.86 0.63,1.71 0.95,2.59c0.29,0.79 0.57,1.58 0.86,2.4c0.25,0.69 0.51,1.39 0.76,2.1c0.54,1.86 0.54,1.86 0.54,4.86c0.8,0.16 1.59,0.32 2.41,0.49c33.24,7.5 65.26,22.39 95.59,37.51c0.85,0.42 1.69,0.84 2.56,1.28c9.9,4.96 19.46,10.42 28.94,16.16c1.5,0.9 1.5,0.9 3.03,1.83c0.93,0.57 1.86,1.14 2.81,1.73c0.83,0.5 1.66,1.01 2.51,1.53c2.02,1.38 3.63,2.55 5.15,4.47c0.78,6.99 0.78,6.99 -1.6,10.08c-3.18,2.54 -5.26,2.53 -9.31,2.71c-0.67,0.04 -1.34,0.08 -2.04,0.11c-2.18,0.12 -4.37,0.2 -6.55,0.29c-1.5,0.07 -2.99,0.14 -4.49,0.22c-2.96,0.15 -5.92,0.28 -8.89,0.41c-4.53,0.19 -9.06,0.43 -13.58,0.67c-3.52,0.18 -7.03,0.35 -10.54,0.51c0,0.66 0,1.32 0,2c2.76,2.53 5.62,4.9 8.5,7.3c2.85,3.08 3.55,4.52 3.5,8.7c-2.04,4.37 -4.26,6.08 -8.5,8.27c-1.66,0.86 -1.66,0.86 -3.35,1.74c-1.2,0.6 -2.39,1.2 -3.59,1.8c-1.21,0.62 -2.43,1.24 -3.64,1.86c-10.06,5.09 -20.34,9.45 -30.92,13.33c1.52,7.93 4.08,15.31 6.88,22.88c0.43,1.22 0.86,2.44 1.31,3.7c0.43,1.17 0.86,2.33 1.3,3.54c0.39,1.06 0.77,2.11 1.17,3.2c1.49,2.98 2.53,3.97 5.34,5.68c2.34,0.45 2.34,0.45 4.87,0.38c1.45,0.02 1.45,0.02 2.93,0.04c1.03,-0.01 2.07,-0.01 3.13,-0.01c1.07,0.01 2.14,0.02 3.25,0.03c3.42,0.03 6.84,0.05 10.26,0.06c4.5,0.01 8.99,0.05 13.49,0.09c1.04,0 2.07,0 3.14,-0.01c5.63,0.06 9.73,0.22 13.93,4.42c0.36,7.46 0.36,7.46 -2,11c-2.48,0.39 -2.48,0.39 -5.64,0.4c-1.18,0.02 -2.36,0.03 -3.58,0.04c-1.28,0 -2.57,0 -3.89,-0.01c-1.31,0.01 -2.63,0.01 -3.98,0.02c-2.79,0.01 -5.58,0.01 -8.37,0c-3.56,-0.02 -7.12,0 -10.68,0.03c-3.41,0.03 -6.81,0.02 -10.22,0.02c-1.27,0.01 -2.55,0.02 -3.86,0.03c-10.94,-0.09 -10.94,-0.09 -15.78,-4.53c-0.56,-0.47 -1.12,-0.93 -1.7,-1.42c-5.23,-5.67 -7.39,-12.82 -9.92,-19.95c-0.93,-2.56 -1.86,-5.1 -2.79,-7.65c-0.66,-1.8 -0.66,-1.8 -1.33,-3.63c-1.58,-4.21 -3.37,-8.27 -5.26,-12.35c-0.66,0.18 -1.31,0.36 -1.99,0.55c-42.94,11.73 -86.61,18.2 -131.16,18.58c-1.95,0.02 -3.9,0.04 -5.85,0.07c-3.8,0.04 -7.6,0.04 -11.41,0.02c-9.88,0.03 -16.53,0.53 -24.59,6.78c-4.81,2.34 -9.67,3.54 -15,4c-0.69,0.06 -1.38,0.13 -2.1,0.2c-15.76,0.78 -29.77,-6.27 -42.9,-14.2c-0.33,-0.33 -0.66,-0.66 -1,-1c-2.63,-0.38 -5.24,-0.71 -7.87,-1c-7.74,-0.87 -7.74,-0.87 -11.13,-2c0.02,0.72 0.03,1.44 0.05,2.18c0.06,3.3 0.1,6.59 0.14,9.88c0.02,1.14 0.05,2.27 0.07,3.44c0.07,8.14 -0.42,12.91 -5.56,19.41c-5.02,3.78 -11.93,2.72 -17.89,2.59c-1.28,0 -2.56,0.01 -3.89,0.01c-9.34,-0.1 -9.34,-0.1 -11.78,-1.82c-1.93,-2.86 -1.49,-5.37 -1.14,-8.69c1.76,-3.19 2.5,-3.83 6,-5c1.41,-0.08 2.82,-0.11 4.23,-0.1c0.72,0 1.45,0.01 2.19,0.01c1.37,0.01 1.37,0.01 2.77,0.03c2.91,0.02 5.81,0.04 8.81,0.06c0,-7.92 0,-15.84 0,-24c-5.94,-0.66 -11.88,-1.32 -18,-2c-1.15,1.98 -2.29,3.95 -3.47,5.99c-1.14,1.95 -2.27,3.9 -3.41,5.85c-0.78,1.34 -1.55,2.68 -2.33,4.02c-12.52,21.63 -12.52,21.63 -17.79,25.14c-2.51,0.26 -2.51,0.26 -5.54,0.27c-1.14,0.01 -2.27,0.02 -3.44,0.03c-1.22,0 -2.45,0 -3.71,0c-1.26,0.01 -2.51,0.01 -3.81,0.01c-2.66,0.01 -5.31,0.01 -7.97,0.01c-3.41,-0.01 -6.82,0.01 -10.23,0.03c-3.24,0.02 -6.49,0.01 -9.74,0.01c-1.23,0.01 -2.46,0.02 -3.72,0.03c-1.13,-0.01 -2.26,-0.01 -3.43,-0.02c-1,0 -2,0 -3.03,0c-0.78,-0.12 -1.57,-0.24 -2.38,-0.37c-2.53,-3.79 -2.61,-6.55 -2,-11c1.81,-2.67 2.88,-2.96 6,-4c1.95,0.03 1.95,0.03 4.2,0.24c22.07,2.76 22.07,2.76 42.83,-2.5c7.76,-6.75 11.81,-17.2 14.97,-26.74c-1.08,-1.26 -1.08,-1.26 -3.56,-1.5c-4.47,0.65 -6.09,2.59 -9.3,5.62c-7.77,6.82 -16.64,9.39 -26.84,9.18c-12.11,-1.11 -22.75,-9.56 -30.34,-18.65c-18.89,-25.47 -25.27,-55.89 -21.66,-87.23c0.72,-4.37 2.01,-8.34 3.7,-12.42c0.49,-1.2 0.97,-2.41 1.47,-3.64c3.78,-8.67 9.43,-17.61 18.33,-21.63c0.73,-0.24 1.45,-0.48 2.2,-0.73c-0.33,-0.44 -0.65,-0.88 -0.99,-1.34c-16.32,-22.19 -25.47,-43.52 -25.32,-71.35c0,-0.71 0,-1.42 0,-2.15c0.09,-20.82 3.44,-44.23 18.31,-60.16c3.09,-1.55 5.59,-1.29 9,-1zm295,92c-1,1.06 -2.01,2.11 -3.02,3.16c-5.77,6.17 -11.33,12.4 -16.6,19c-3.37,4.03 -6.98,7.82 -10.58,11.65c-3.25,3.46 -6.33,6.98 -9.3,10.69c-4,5 -8.31,9.65 -12.7,14.31c-3.25,3.46 -6.33,6.98 -9.3,10.69c-4,5 -8.31,9.65 -12.7,14.31c-3.25,3.46 -6.33,6.98 -9.3,10.69c-4,5 -8.31,9.65 -12.7,14.31c-3.25,3.46 -6.33,6.98 -9.3,10.69c-4,5 -8.31,9.65 -12.7,14.31c-3.25,3.46 -6.33,6.98 -9.3,10.69c-4.07,5.08 -8.43,9.83 -12.9,14.55c-6.35,5.81 -6.35,5.81 -9.6,12.95c19.05,11.03 19.05,11.03 40.46,11.38c14.12,-4.89 21.49,-17.65 29.54,-29.38c0.65,-0.95 1.3,-1.9 1.97,-2.87c4.26,-6.21 8.47,-12.44 12.68,-18.68c3.24,-4.81 6.49,-9.62 9.75,-14.42c2.58,-3.81 5.16,-7.62 7.74,-11.43c1.26,-1.88 2.53,-3.74 3.8,-5.61c6.37,-9.4 12.66,-18.82 18.63,-28.48c3.76,-6.07 7.7,-12.02 11.68,-17.95c0.75,-1.12 1.5,-2.25 2.25,-3.38c3.97,-5.95 7.97,-11.88 12.03,-17.78c2.06,-3 4.11,-6 6.15,-9.01c1,-1.46 2.01,-2.92 3.02,-4.38c1.42,-2.04 2.82,-4.09 4.22,-6.15c0.43,-0.61 0.86,-1.21 1.3,-1.84c1.98,-2.97 2.8,-4.66 2.62,-8.27c-0.91,-2.97 -2.04,-5.23 -3.84,-7.75c-6.25,-3.13 -9.76,-0.61 -14,4zm25,25c-3,3.07 -3,3.07 -4,7c2.31,0.66 4.62,1.32 7,2c-0.66,-2.97 -1.32,-5.94 -2,-9c-0.33,0 -0.66,0 -1,0zm-255,22c0.66,1.32 1.32,2.64 2,4c0.66,0 1.32,0 2,0c0.23,0.52 0.45,1.03 0.69,1.56c1.32,2.63 1.32,2.63 3.62,5.38c3.76,5.1 5.6,11.14 7.69,17.06c26.18,-5.29 53.22,-13.71 77,-26c0.91,-0.47 0.91,-0.47 1.84,-0.95c6.7,-3.53 12.89,-7.56 18.16,-13.05c0,-0.33 0,-0.66 0,-1c-37.95,-0.77 -76.05,4.59 -113,13zm128.56,-8.44c-0.88,1.8 -1.74,3.61 -2.56,5.44c-17.02,22.44 -53.53,30.71 -79,39c0,0.33 0,0.66 0,1c30.38,5.11 30.38,5.11 60.88,9.5c1.26,0.17 2.53,0.34 3.84,0.52c1.16,0.15 2.32,0.3 3.52,0.45c1,0.13 2,0.26 3.03,0.39c3.56,0.18 6.44,0.12 9.35,-2.08c0.46,-0.52 0.92,-1.03 1.4,-1.55c0.78,-0.86 0.78,-0.86 1.58,-1.74c0.55,-0.61 1.09,-1.23 1.65,-1.86c0.57,-0.64 1.15,-1.27 1.74,-1.93c4.04,-4.49 7.86,-9.14 11.64,-13.86c3.36,-4.02 6.96,-7.81 10.56,-11.63c4.18,-4.46 8.05,-9.08 11.86,-13.86c1.75,-2.11 3.55,-4.02 5.51,-5.91c0.81,-0.81 1.61,-1.61 2.44,-2.44c0,-0.66 0,-1.32 0,-2c-6.99,-0.8 -13.98,-1.45 -21,-2c-1.51,-0.13 -1.51,-0.13 -3.04,-0.26c-13.19,-1.73 -13.19,-1.73 -23.4,4.82zm112.44,7.44c-1,1.5 -2,3 -3,4.49c-0.89,1.35 -1.79,2.7 -2.69,4.04c-2.48,3.73 -4.97,7.46 -7.46,11.19c-4.46,6.71 -8.93,13.4 -13.43,20.08c-0.65,0.97 -1.3,1.94 -1.97,2.93c-1.19,1.77 -2.39,3.54 -3.59,5.3c-0.52,0.77 -1.04,1.55 -1.57,2.34c-0.45,0.66 -0.89,1.32 -1.35,2c-1.11,1.61 -1.11,1.61 -0.94,3.63c1.22,0.05 2.44,0.1 3.7,0.15c4.53,0.19 9.07,0.39 13.6,0.59c1.96,0.09 3.92,0.17 5.88,0.25c2.82,0.12 5.64,0.25 8.46,0.38c0.88,0.03 1.75,0.06 2.66,0.1c0.82,0.04 1.64,0.08 2.48,0.12c0.72,0.03 1.44,0.06 2.18,0.09c2.36,0.37 4.01,1.08 6.04,2.32c1.52,3.05 1.24,5.64 1,9c-1,1.71 -1,1.71 -3,3c-2.85,0.25 -5.47,0.33 -8.31,0.25c-0.83,-0.01 -1.67,-0.02 -2.52,-0.03c-5.58,-0.1 -11.14,-0.33 -16.71,-0.59c-1.89,-0.09 -3.77,-0.17 -5.66,-0.24c-3.97,-0.15 -7.76,-0.38 -11.69,-1.02c-3.56,-0.47 -5.73,-0.6 -9.11,0.63c-3.93,4.06 -6.63,8.6 -9.47,13.46c-2.79,4.63 -5.9,9.03 -8.97,13.48c-1.27,1.86 -2.54,3.73 -3.81,5.6c-4.01,5.86 -8.11,11.67 -12.25,17.45c-2.4,2.76 -2.4,2.76 -3.5,6.01c44.1,1.08 105.76,1.12 146,-19c-0.69,-4.03 -1.87,-7.73 -3.25,-11.58c-0.44,-1.24 -0.89,-2.48 -1.34,-3.76c-0.23,-0.64 -0.47,-1.29 -0.7,-1.95c-0.71,-1.97 -1.41,-3.94 -2.12,-5.91c-1.61,-5.79 -1.61,-5.79 -4.59,-10.8c-2.42,-0.21 -4.82,-0.38 -7.25,-0.5c-4.32,-0.22 -8.52,-0.52 -12.75,-1.5c-1.22,-7.33 -1.22,-7.33 -0.19,-10.44c1.19,-1.56 1.19,-1.56 3.19,-2.56c1.87,-0.23 3.75,-0.41 5.63,-0.56c1,-0.09 2,-0.17 3.03,-0.26c0.77,-0.06 1.55,-0.12 2.34,-0.18c-2.78,-9.47 -5.9,-18.8 -9.2,-28.11c-0.66,-1.89 -1.31,-3.79 -1.95,-5.7c-0.94,-2.77 -1.91,-5.52 -2.89,-8.28c-0.28,-0.85 -0.56,-1.7 -0.84,-2.58c-1.58,-4.35 -1.58,-4.35 -4.83,-7.47c-2.09,-0.82 -4.1,-1.37 -6.29,-1.86c-0.74,-0.19 -1.48,-0.39 -2.24,-0.59c-2.24,-0.57 -4.5,-1.09 -6.76,-1.6c-0.77,-0.17 -1.55,-0.35 -2.35,-0.53c-1.88,-0.43 -3.77,-0.86 -5.65,-1.28zm-308.75,20.13c-10.09,13.59 -9.88,33.4 -7.93,49.49c3.21,18.74 11.47,39.91 26.87,51.88c4.69,3.23 8.7,5.12 14.57,4.93c9.66,-1.87 16.55,-10.08 21.86,-17.77c13.2,-21.07 19.31,-46.15 14.81,-70.76c-2.5,-10.19 -6.81,-19.54 -15.43,-25.9c-18.73,-9.78 -40.53,-8.46 -54.75,8.13zm352.75,-8.13c2.39,10.03 6.05,19.56 9.69,29.19c0.61,1.63 1.22,3.27 1.84,4.91c1.48,3.97 2.97,7.93 4.47,11.9c17.43,0.17 34.83,-0.33 52.25,-0.93c3.6,-0.12 7.19,-0.24 10.79,-0.36c6.98,-0.23 13.97,-0.47 20.96,-0.71c-3.99,-4.15 -8.92,-6.32 -14,-8.94c-1.11,-0.57 -2.22,-1.14 -3.36,-1.74c-26.49,-13.51 -54.12,-24.87 -82.64,-33.32zm-265,36c-0.06,0.86 -0.06,0.86 -0.12,1.73c-1.44,19.9 -4.08,39.69 -13.63,57.54c-1.63,2.73 -1.63,2.73 -0.25,5.73c4.38,1.29 8.42,2.12 13,2c3.74,-2.14 5.65,-5.46 8,-9c0.95,-1.32 1.91,-2.63 2.87,-3.93c8.2,-11.25 15.51,-22.89 22.13,-35.13c0.4,-0.73 0.8,-1.46 1.21,-2.21c0.36,-0.68 0.73,-1.37 1.1,-2.08c0.49,-0.91 0.49,-0.91 0.99,-1.84c0.94,-2.11 0.94,-2.11 0.7,-5.81c-0.91,-0.18 -1.83,-0.35 -2.77,-0.53c-3.4,-0.66 -6.8,-1.32 -10.2,-1.98c-1.47,-0.28 -2.94,-0.57 -4.41,-0.85c-2.12,-0.41 -4.23,-0.82 -6.35,-1.23c-1.27,-0.25 -2.55,-0.49 -3.86,-0.75c-2.8,-0.54 -5.61,-1.1 -8.41,-1.66zm53,10c-1.73,3.73 -3.47,7.47 -5.25,11.31c-7.18,15.15 -15.65,29.16 -26.01,42.34c-1.54,2.08 -2.63,4.03 -3.74,6.35c3.06,0.51 6.12,1 9.19,1.5c0.86,0.14 1.73,0.29 2.62,0.43c2.39,0.39 4.79,0.74 7.19,1.07c0.92,0.14 1.83,0.29 2.78,0.44c3.56,-0.7 5.36,-3.28 7.6,-5.94c0.72,-0.83 0.72,-0.83 1.46,-1.68c1.4,-1.59 2.78,-3.21 4.16,-4.82c1.14,-1.29 2.29,-2.58 3.44,-3.87c2.11,-2.44 4.21,-4.89 6.3,-7.34c6.97,-8.17 14.08,-16.18 21.37,-24.07c0.62,-0.69 1.25,-1.38 1.89,-2.09c0.54,-0.59 1.07,-1.18 1.63,-1.78c1.76,-2.21 1.76,-2.21 3.37,-6.85c-12.54,-1.65 -25.08,-3.3 -38,-5zm251.48,15.1c-2.66,0.12 -5.32,0.26 -7.98,0.4c-4.7,0.25 -4.7,0.25 -9.5,0.5c3.3,9.24 6.6,18.48 10,28c5.32,-0.76 8.37,-1.34 13.05,-3.4c1.09,-0.48 2.18,-0.96 3.31,-1.45c1.12,-0.5 2.24,-1.01 3.39,-1.52c1.14,-0.5 2.27,-1 3.44,-1.5c6.5,-2.69 6.5,-2.69 11.81,-7.13c-2.27,-1.96 -4.54,-3.92 -6.81,-5.87c-0.65,-0.56 -1.29,-1.12 -1.95,-1.69c-0.62,-0.53 -1.24,-1.07 -1.88,-1.62c-0.58,-0.49 -1.15,-0.98 -1.73,-1.49c-4.99,-4.08 -9.07,-3.47 -15.15,-3.23z" fill="#ffffff" id="svg_1" transform="translate(27,1)"/>
  <path d="m0,0c2.78,2.37 3.09,4.92 3.69,8.44c-0.96,3.9 -1.6,4.73 -5,7c-2.16,0.6 -2.16,0.6 -4.5,1.06c-2.6,0.52 -4.98,1.1 -7.5,1.94c-2.36,4.14 -2.3,8.35 -2.25,13c-0.01,0.7 -0.02,1.39 -0.03,2.11c0.02,4.05 0.35,7.3 2.28,10.89c3.88,2.33 7.55,2.39 12,2c3.72,-1.44 4.79,-2.63 6.75,-6.13c1.11,-2.88 1.43,-5.48 1.62,-8.56c0.3,-3.39 0.51,-4.16 2.75,-6.94c3.79,-1.81 5.87,-1.49 9.88,-0.37c2.58,1.89 2.96,2.89 4,6c0.18,9.39 -1.29,17.57 -7.57,24.81c-5.85,5.45 -12.37,8.38 -20.37,8.69c-8.6,-0.32 -16.06,-3.22 -22.06,-9.5c-6.98,-10.75 -7.13,-21.45 -6,-34c2.35,-8.73 8.29,-14.53 16,-19c5.49,-2 10.56,-2.84 16.31,-1.44z" fill="#ffffff" id="svg_2" transform="translate(64.3125,161.5625)"/>
 </g>
</svg>